HIERARCHY
ROOT pelvis
{
  OFFSET 0 100 0
  CHANNELS 6 Xposition Yposition Zposition Zrotation Xrotation Yrotation
  JOINT pelvis_right_femur
  {
    OFFSET -10.78128 -3.44521 -0.5502486
    CHANNELS 3 Zrotation Xrotation Yrotation
    JOINT right_femur_tibia
    {
      OFFSET -0.8047443 -44.0398 -0.1307829
      CHANNELS 3 Zrotation Xrotation Yrotation
      JOINT right_tibia_foot
      {
        OFFSET 3.006224 -47.83518 -5
        CHANNELS 3 Zrotation Xrotation Yrotation
        End Site
        {
          OFFSET 0 -5 15
        }
      }
    }
  }
  JOINT pelvis_left_femur
  {
    OFFSET 10.78128 -3.44521 -0.5502486
    CHANNELS 3 Zrotation Xrotation Yrotation
    JOINT left_femur_tibia
    {
      OFFSET 0.8047443 -44.0398 -0.1307829
      CHANNELS 3 Zrotation Xrotation Yrotation
      JOINT left_tibia_foot
      {
        OFFSET -4.370144 -48.10324 -4.275266
        CHANNELS 3 Zrotation Xrotation Yrotation
        End Site
        {
          OFFSET 0 -5 15
        }
      }
    }
  }
  JOINT pelvis_spine1
  {
    OFFSET 0 6.468898 -3.129235
    CHANNELS 3 Zrotation Xrotation Yrotation
    JOINT spine1
    {
      OFFSET 0 23.15396 4.99043
      CHANNELS 3 Zrotation Xrotation Yrotation
      JOINT spine2
      {
        OFFSET 0 20.79997 -5.064912
        CHANNELS 3 Zrotation Xrotation Yrotation
        JOINT neck
        {
          OFFSET 0 14.38658 9.616178
          CHANNELS 3 Zrotation Xrotation Yrotation
          End Site
          {
            OFFSET 0 20 0
          }
        }
      }
      JOINT right_manubrium
      {
        OFFSET -5.722621 16.35077 3.967754
        CHANNELS 3 Zrotation Xrotation Yrotation
        JOINT right_clavicle
        {
          OFFSET -13.16364 1.694482 -4.693211
          CHANNELS 3 Zrotation Xrotation Yrotation
          JOINT right_humerus
          {
            OFFSET -28.5034 -0.3100689 -2.792744
            CHANNELS 3 Zrotation Xrotation Yrotation
            JOINT right_radius
            {
              OFFSET -25.15693 0.02248979 -1.271978
              CHANNELS 3 Zrotation Xrotation Yrotation
              End Site
              {
                OFFSET -15 0 0
              }
            }
          }
        }
      }
      JOINT left_manubrium
      {
        OFFSET 5.722621 16.35077 3.967754
        CHANNELS 3 Zrotation Xrotation Yrotation
        JOINT left_clavicle
        {
          OFFSET 13.16364 1.694482 -4.693211
          CHANNELS 3 Zrotation Xrotation Yrotation
          JOINT left_humerus
          {
            OFFSET 29.39168 -1.063119 -2.237045
            CHANNELS 3 Zrotation Xrotation Yrotation
            JOINT left_radius
            {
              OFFSET 24.59957 -0.9528479 0.9047498
              CHANNELS 3 Zrotation Xrotation Yrotation
              End Site
              {
                OFFSET 15 -0 -0
              }
            }
          }
        }
      }
    }
  }
}
MOTION
Frames: 15
Frame Time: 0.0416666666667
-952.734 110.88 2583.039 -8.929071 -5.705745 -54.52622 3.222994 23.49804 -0.9949182 -0 15.46017 -0 -10.77417 -16.6283 -3.381083 1.394847 -11.58953 -7.733248 -0 1.500508 -0 -5.538443 -4.451661 16.79731 0.4769803 -1.412383 8.488819 0.7219629 14.82428 -6.537834 0.4113182 21.31662 1.551526 0.6232793 -18.01541 2.944512 -3.550725 -31.95896 12.97563 90.44984 20.04098 -9.56459 -0 0 28.14853 -21.0817 8.342647 10.09584 -0.4244694 -20.59789 -7.951611 -94.21435 8.65145 39.99357 -0 0 2.332901 7.829063 14.36724 0.8160558
-956.5703 110.1933 2587.384 -9.50665 -6.521014 -55.7021 2.573479 23.4153 -0.03875118 -0 17.52009 -0 -9.853949 -16.02885 -3.631705 0.3987516 -8.88433 -8.900582 -0 1.484837 -0 -4.260433 -4.632936 17.15422 0.4179493 -1.310329 8.434604 0.7372209 14.57875 -6.54841 0.3833609 21.44915 1.668657 0.6370191 -18.2845 3.05756 -3.790619 -31.89333 12.83985 90.59714 20.19347 -9.583635 -0 0 27.9478 -21.15681 7.906689 9.906264 -0.3357679 -20.46911 -7.747869 -94.1648 8.826545 39.715 -0 0 2.546243 7.965719 14.26919 0.449765
-960.2352 109.6385 2591.588 -9.643947 -7.059319 -56.78491 1.948249 22.52545 1.257861 -0 19.87353 -0 -8.65258 -15.72394 -3.855701 -0.6859253 -6.489916 -9.765513 -0 1.666836 -0 -2.089746 -4.655867 17.67307 0.3526746 -1.191337 8.367666 0.7553464 14.28567 -6.56167 0.3442229 21.59644 1.832083 0.6817939 -18.60323 3.190159 -4.06001 -31.78093 12.67889 90.76004 20.37752 -9.638021 -0 0 27.6812 -21.25396 7.410322 9.664602 -0.1997945 -20.3535 -7.509839 -94.1068 9.031238 39.33093 -0 0 2.743763 8.145836 14.13575 -0.004413575
-963.6944 109.2297 2595.641 -9.236318 -7.25745 -57.73699 1.398562 20.75247 2.872372 -0 22.41144 -0 -7.264846 -15.73505 -4.037773 -1.872563 -4.546113 -10.3045 -0 2.006498 -0 1.086042 -4.452051 18.4274 0.2839989 -1.059326 8.291404 0.7747174 13.95387 -6.576047 0.2929523 21.74744 2.040617 0.762938 -18.95586 3.335165 -4.343304 -31.62297 12.49836 90.92426 20.59064 -9.724263 -0 0 27.36469 -21.37136 6.87867 9.380929 -0.0163007 -20.25927 -7.246563 -94.04401 9.254386 38.85653 -0 0 2.911015 8.358485 13.96416 -0.5215677
-966.9426 108.976 2599.546 -8.274538 -7.102249 -58.54855 0.9928971 18.10808 4.731839 -0 24.97962 -0 -5.828164 -15.97186 -4.143353 -3.131947 -3.134084 -10.54715 -0 2.459547 -0 5.241878 -3.951717 19.44285 0.2159877 -0.9183323 8.208816 0.7935599 13.5941 -6.590654 0.2292172 21.89132 2.292018 0.8851848 -19.32567 3.485149 -4.625802 -31.41832 12.30425 91.07983 20.8315 -9.844616 -0 0 27.0085 -21.5049 6.33858 9.063293 0.2152655 -20.19739 -6.969553 -93.97598 9.48403 38.30048 -0 0 3.020639 8.595502 13.7531 -1.08051
-970.0097 108.8772 2603.324 -6.856506 -6.628551 -59.23451 0.8002665 14.70714 6.729607 -0 27.40884 -0 -4.492665 -16.27106 -4.138487 -4.387677 -2.257723 -10.56592 -0 2.985098 -0 10.1772 -3.104386 20.66427 0.1530833 -0.7719568 8.122551 0.810021 13.21767 -6.605103 0.153112 22.01857 2.583029 1.052246 -19.69581 3.632643 -4.894466 -31.16459 12.10235 91.22093 21.10071 -10.00512 -0 0 26.61809 -21.64807 5.815337 8.717551 0.4951548 -20.17955 -6.691729 -93.89897 9.708126 37.66687 -0 0 3.037798 8.851359 13.50217 -1.664164
-972.9575 108.9202 2607.008 -5.157007 -5.905269 -59.82072 0.8673567 10.75335 8.754638 -0 29.55674 -0 -3.387532 -16.46327 -4.008608 -5.537304 -1.851326 -10.44982 -0 3.569406 -0 15.54023 -1.909694 21.95568 0.09914677 -0.6232619 8.034871 0.8223046 12.83534 -6.619378 0.06515336 22.12176 2.909084 1.266022 -20.05025 3.770467 -5.138395 -30.85944 11.89777 91.3451 21.40065 -10.21305 -0 0 26.19601 -21.79252 5.330129 8.348012 0.8227035 -20.21589 -6.425984 -93.80712 9.915432 36.95744 -0 0 2.926671 9.122605 13.21231 -2.259397
-975.8675 109.0798 2610.642 -3.37202 -5.014093 -60.32879 1.202871 6.500313 10.71394 -0 31.34216 -0 -2.602241 -16.43485 -3.763379 -6.485327 -1.810676 -10.27618 -0 4.24759 -0 20.90309 -0.4385544 23.13706 0.05669877 -0.4751953 7.947627 0.828868 12.4571 -6.633794 -0.03350806 22.19612 3.263637 1.525611 -20.37438 3.891979 -5.348741 -30.50197 11.69497 91.45219 21.73395 -10.47454 -0 0 25.74403 -21.92892 4.899075 7.95876 1.195581 -20.31329 -6.184037 -93.69386 10.09617 36.17398 -0 0 2.656609 9.407006 12.88688 -2.856096
-978.8274 109.3224 2614.27 -1.670615 -4.03083 -60.76828 1.774554 2.211226 12.5358 -0 32.75427 -0 -2.187682 -16.15811 -3.42786 -7.166563 -2.030598 -10.09652 -0 5.107634 -0 25.83822 1.171053 24.03429 0.02659393 -0.3312908 7.862298 0.8286524 12.09274 -6.648981 -0.140777 22.23968 3.637416 1.826423 -20.65516 3.99119 -5.518203 -30.094 11.49826 91.54322 22.10098 -10.79264 -0 0 25.26507 -22.04784 4.533712 7.55516 1.608879 -20.4745 -5.975979 -93.5534 10.24235 35.32091 -0 0 2.207012 9.702635 12.53312 -3.445743
-981.9208 109.6121 2617.935 -0.1755993 -3.017059 -61.13676 2.513767 -1.862865 14.15559 -0 33.83532 -0 -2.168063 -15.68928 -3.02989 -7.549968 -2.432209 -9.940243 -0 6.276176 -0 29.9528 2.738849 24.51229 0.008148999 -0.1962466 7.78012 0.8213012 11.75276 -6.665812 -0.253387 22.2531 4.018036 2.159732 -20.88117 4.062864 -5.640492 -29.64108 11.31253 91.61947 22.49726 -11.16624 -0 0 24.76432 -22.14053 4.242178 7.145032 2.054176 -20.69809 -5.810395 -93.38233 10.34779 34.40773 -0 0 1.570933 10.0071 12.16317 -4.019914
-985.22 109.9156 2621.673 1.030477 -2.022254 -61.42324 3.320204 -5.483867 15.49389 -0 34.64955 -0 -2.551435 -15.15108 -2.592244 -7.629121 -2.975032 -9.826873 -0 7.896689 -0 32.87916 4.071233 24.48119 -0.0004173224 -0.07606679 7.702288 0.8073153 11.44916 -6.685208 -0.3669065 22.23945 4.390299 2.512838 -21.04286 4.102768 -5.710171 -29.15332 11.14369 91.68178 22.91143 -11.58933 -0 0 24.24986 -22.19975 4.030206 6.739212 2.518788 -20.97878 -5.694644 -93.1812 10.40828 33.45133 -0 0 0.7578374 10.31695 11.79412 -4.569006
-988.7809 110.2053 2625.508 1.891376 -1.090979 -61.61108 4.065441 -8.419641 16.4381 -0 35.25072 -0 -3.331389 -14.71327 -2.131511 -7.411629 -3.659512 -9.775914 -0 10.10673 -0 34.25289 4.986901 23.88457 -0.001404113 0.02234176 7.630193 0.7880915 11.19531 -6.707791 -0.4760288 22.20378 4.737279 2.869868 -21.13322 4.108165 -5.722993 -28.64577 10.99877 91.73003 23.32461 -12.05047 -0 0 23.73283 -22.2207 3.901544 6.351435 2.985483 -21.30777 -5.634891 -92.95583 10.42191 32.47795 0 0 -0.204321 10.62718 11.44673 -5.08129
-992.6374 110.4617 2629.451 2.371268 -0.2692438 -61.68013 4.602955 -10.44616 16.83967 -0 35.65233 -0 -4.477901 -14.56906 -1.660674 -6.915573 -4.526972 -9.806945 -0 13.00935 -0 33.72121 5.345932 22.68394 0.002970256 0.09204371 7.565674 0.7658006 11.00506 -6.733464 -0.5751022 22.15258 5.042022 3.213141 -21.14866 4.078439 -5.676603 -28.13844 10.88546 91.76265 23.71139 -12.53241 -0 0 23.22763 -22.20183 3.857877 5.997619 3.432883 -21.673 -5.635717 -92.71805 10.38965 31.52427 0 0 -1.268316 10.93078 11.14316 -5.54232
-996.7943 110.675 2633.492 2.464055 0.3942562 -61.60896 4.797165 -11.37148 16.53952 -0 35.80028 -0 -5.920003 -14.89283 -1.189938 -6.174221 -5.658937 -9.926207 -0 16.62819 -0 31.01598 5.091632 20.8538 0.01108482 0.1272321 7.511257 0.743089 10.89118 -6.76102 -0.6588276 22.09282 5.289557 3.524976 -21.08987 4.015594 -5.571304 -27.65563 10.81122 91.77627 24.04268 -13.01216 -0 0 22.75209 -22.14521 3.898526 5.694629 3.836746 -22.05931 -5.699422 -92.48562 10.3158 30.63719 0 0 -2.369123 11.21839 10.90376 -5.934727
-1001.222 110.8449 2637.605 2.214829 0.8545599 -61.37767 4.575698 -11.08536 15.42467 -0 35.55315 -0 -7.528528 -15.76537 -0.7196926 -5.243974 -7.170215 -10.09898 -0 20.84328 -0 26.10175 4.297072 18.40537 0.02221155 0.124417 7.470346 0.7226257 10.86321 -6.787898 -0.7230579 22.03085 5.468862 3.789772 -20.96193 3.924238 -5.410436 -27.22436 10.78208 91.76546 24.29026 -13.46184 -0 0 22.32758 -22.05632 4.020163 5.458634 4.172177 -22.44898 -5.825305 -92.28085 10.20784 29.87161 0 0 -3.428459 11.47815 10.74356 -6.238515
